<!-- Generated by IcoMoon.io -->
<svg version="1.1" xmlns="http://www.w3.org/2000/svg" width="1024" height="1024" viewBox="0 0 1024 1024">
<title></title>
<g id="icomoon-ignore">
</g>
<path fill="#f4f4fd" d="M733.44 287.36c10.216-8.87 23.647-14.276 38.341-14.276 0.246 0 0.491 0.002 0.736 0.005h-0.037c0.021 0 0.047 0 0.072 0 14.908 0 28.511 5.583 38.835 14.771l-0.059-0.051c9.896 8.805 16.251 21.405 16.765 35.495l0.003 0.089c0.007 0.317 0.011 0.691 0.011 1.066 0 13.781-5.635 26.246-14.726 35.216l-0.005 0.005-297.92 343.936c-5.075 5.026-11.111 9.091-17.806 11.895l-0.37 0.137c-6.697 2.808-14.481 4.44-22.645 4.44-15.311 0-29.281-5.738-39.879-15.18l0.060 0.052-197.568-182.4c-5.354-4.573-9.722-10.126-12.856-16.403l-0.136-0.301c-3.104-6.206-4.921-13.521-4.921-21.259 0-14.455 6.339-27.429 16.388-36.295l0.053-0.045c5.244-4.821 11.456-8.686 18.298-11.263l0.39-0.129c6.236-2.393 13.45-3.779 20.987-3.779 8.218 0 16.051 1.648 23.186 4.631l-0.397-0.147c7.062 2.924 13.098 6.968 18.183 11.975l-0.007-0.007 156.352 144.256 259.328-304.96c0.475-0.551 0.955-1.052 1.461-1.526l-0.053-0.010z"></path>
<path fill="none"  stroke-linejoin="miter" stroke-linecap="butt" stroke-miterlimit="4" stroke-width="64" d="M128 32h768c53.019 0 96 42.981 96 96v768c0 53.019-42.981 96-96 96h-768c-53.019 0-96-42.981-96-96v-768c0-53.019 42.981-96 96-96z"></path>
</svg>
